<svg width="18" height="17" viewBox="0 0 18 17" fill="none" xmlns="http://www.w3.org/2000/svg">
<path d="M11.4 0.800098C11.364 0.769297 11.0884 0.627163 10.7358 0.450856C9.64392 -0.0952627 8.35608 -0.0952628 7.26416 0.450856C6.91165 0.627163 6.63601 0.769297 6.6 0.800098L1.37922 5.32797C0.503207 6.08772 0 7.19023 0 8.34981V15.2001C0 15.6775 0.189642 16.1354 0.527208 16.4729C0.864773 16.8105 1.32261 17.0001 1.8 17.0001H6.6C6.75913 17.0001 6.91174 16.9369 7.02426 16.8244C7.13679 16.7119 7.2 16.5593 7.2 16.4001V12.8001C7.2 12.3227 7.38964 11.8649 7.72721 11.5273C8.06477 11.1898 8.52261 11.0001 9 11.0001C9.47739 11.0001 9.93523 11.1898 10.2728 11.5273C10.6104 11.8649 10.8 12.3227 10.8 12.8001V16.4001C10.8 16.5593 10.8632 16.7119 10.9757 16.8244C11.0883 16.9369 11.2409 17.0001 11.4 17.0001H16.2C16.6774 17.0001 17.1352 16.8105 17.4728 16.4729C17.8104 16.1354 18 15.6775 18 15.2001V8.34981C18 7.19023 17.4968 6.08772 16.6208 5.32797L11.4 0.800098Z" fill="#F7B400"/>
</svg>
