<svg width="18" height="18" viewBox="0 0 18 18" fill="none" xmlns="http://www.w3.org/2000/svg">
<path fill-rule="evenodd" clip-rule="evenodd" d="M4.5 0H13.5C14.6931 0.00127625 15.8369 0.475792 16.6806 1.31943C17.5242 2.16307 17.9987 3.30692 18 4.5V13.5C17.9987 14.6931 17.5242 15.8369 16.6806 16.6806C15.8369 17.5242 14.6931 17.9987 13.5 18H4.5C3.30692 17.9987 2.16307 17.5242 1.31943 16.6806C0.475792 15.8369 0.00127625 14.6931 0 13.5V4.5C0.00127625 3.30692 0.475792 2.16307 1.31943 1.31943C2.16307 0.475792 3.30692 0.00127625 4.5 0ZM12.2244 6.82863L13.1595 5.84781C13.3995 5.59792 13.5206 5.2744 13.4971 4.94612C13.4736 4.61783 13.3072 4.31069 13.0335 4.09005C12.2522 3.45594 10.9182 2.7 9 2.7C7.08176 2.7 5.74784 3.45594 4.96651 4.09005C4.69276 4.31069 4.52642 4.61783 4.50289 4.94612C4.47935 5.2744 4.60048 5.59792 4.8405 5.84781L5.77618 6.82863C5.95869 7.02118 6.213 7.1486 6.49243 7.18747C6.77185 7.22634 7.05764 7.17407 7.2973 7.04025C7.69638 6.82062 8.31606 6.55872 9.00056 6.55872C9.68506 6.55872 10.3047 6.82062 10.7038 7.04025C10.8916 7.14431 11.1083 7.19959 11.3294 7.19984C11.4999 7.19971 11.6683 7.16643 11.8229 7.10232C11.9775 7.0382 12.1145 6.9448 12.2244 6.82863Z" fill="#617D79"/>
</svg>
