<svg width="18" height="18" viewBox="0 0 18 18" fill="none" xmlns="http://www.w3.org/2000/svg">
<path opacity="0.8" d="M9.00001 1.2014C8.44032 1.18801 7.88362 1.28669 7.36263 1.49162C6.84165 1.69656 6.3669 2.00361 5.96633 2.39472C5.56576 2.78582 5.24745 3.25309 5.03012 3.76903C4.81279 4.28496 4.70083 4.83915 4.70083 5.39899C4.70083 5.95884 4.81279 6.51303 5.03012 7.02896C5.24745 7.5449 5.56576 8.01216 5.96633 8.40327C6.3669 8.79438 6.84165 9.10143 7.36263 9.30637C7.88362 9.5113 8.44032 9.60998 9.00001 9.59659C9.55969 9.60998 10.1164 9.5113 10.6374 9.30637C11.1584 9.10143 11.6331 8.79438 12.0337 8.40327C12.4343 8.01216 12.7526 7.5449 12.9699 7.02896C13.1872 6.51303 13.2992 5.95884 13.2992 5.39899C13.2992 4.83915 13.1872 4.28496 12.9699 3.76903C12.7526 3.25309 12.4343 2.78582 12.0337 2.39472C11.6331 2.00361 11.1584 1.69656 10.6374 1.49162C10.1164 1.28669 9.55969 1.18801 9.00001 1.2014Z" fill="#617D79"/>
<path opacity="0.8" d="M6.6 10.793C5.48609 10.793 4.41781 11.2355 3.63015 12.0231C2.8425 12.8108 2.4 13.8791 2.4 14.993C2.4 16.6478 3.74154 17.9894 5.3964 17.9894H12.6036C14.2585 17.9894 15.6 16.6478 15.6 14.993C15.6 13.8791 15.1575 12.8108 14.3699 12.0231C13.5822 11.2355 12.5139 10.793 11.4 10.793H6.6Z" fill="#617D79"/>
</svg>
